<svg width="64" height="65" viewBox="0 0 64 65" fill="none" xmlns="http://www.w3.org/2000/svg">
<path fill-rule="evenodd" clip-rule="evenodd" d="M13.6973 21.5918C7.65827 20.4483 3.74403 15.9186 3.90019 12.4865C4.15107 6.94578 7.93859 4.1612 16.1037 4.12605H16.2087C16.6474 4.12683 17.0709 3.95642 17.3978 3.64755C17.7248 3.33867 17.9322 2.91311 17.9802 2.4526C18.0031 2.23466 17.9838 2.01407 17.9233 1.80429C17.8628 1.59451 17.7625 1.39994 17.6285 1.23246C17.4944 1.06498 17.3295 0.9281 17.1437 0.830176C16.9579 0.732252 16.7552 0.675337 16.5479 0.662905L16.2509 0.643981C13.8215 0.481772 11.136 0.387151 9.68707 0.749416C3.64547 2.26201 0.29187 6.10905 0.0102692 12.2892C-0.21373 17.2041 3.24867 22.0082 8.12163 25.8066C8.16856 25.8432 8.21593 25.8793 8.26371 25.9147C7.32035 27.6584 6.71747 29.6049 6.45251 31.7569C5.53347 37.9857 6.38851 41.8598 5.73315 44.4254C5.07651 46.9923 2.09027 48.3995 0.911392 51.2665C-0.266205 54.1322 -0.0486145 55.3893 0.296989 57.6467C0.500507 58.9849 0.961311 60.9422 1.67683 63.5159C1.75592 63.8 1.91999 64.0494 2.1445 64.2268C2.36901 64.4042 2.64188 64.5 2.92227 64.5H7.23715C7.95395 64.5 8.53506 63.8863 8.53506 63.1293V62.4399C8.53508 62.2587 8.50105 62.0792 8.43494 61.912C8.36884 61.7447 8.27197 61.5929 8.14995 61.4655C8.02793 61.338 7.88319 61.2373 7.72409 61.1693C7.56499 61.1013 7.3947 61.0673 7.22307 61.0693C6.64067 61.0774 6.14403 60.9152 5.73315 60.5827C4.69507 59.7446 4.60931 59.2769 4.60931 57.6467C4.60931 56.5599 4.98307 55.4663 5.73315 54.366C8.74115 52.3006 11.2563 50.6866 13.4759 49.4998C13.7037 51.8815 14.1543 54.047 14.8237 55.9962C15.5277 58.0455 16.7514 60.653 18.4935 63.8174C18.6076 64.025 18.7713 64.1973 18.9683 64.3171C19.1653 64.4369 19.3887 64.5 19.616 64.5H23.0311C23.7351 64.5 24.3111 63.9079 24.3277 63.1645L24.3431 62.5427C24.3521 62.1841 24.2278 61.836 23.9966 61.5732C23.7654 61.3104 23.4459 61.1537 23.1066 61.1369L21.321 61.0477C20.7936 61.0206 20.3341 60.6597 20.1587 60.1339C19.5674 58.3604 19.3242 56.618 19.4291 54.9054C19.5495 52.9737 20.1575 50.3406 21.2544 47.0031C25.8112 46.9599 35.0554 49.0483 37.184 49.2348C37.6858 49.2794 38.2016 49.2754 38.7303 49.2267C39.1572 50.6478 39.4249 52.1168 39.5277 53.6037C39.6595 55.4028 39.6711 58.5672 39.5635 63.0955C39.5593 63.2784 39.5897 63.4602 39.653 63.6305C39.7163 63.8007 39.8112 63.9558 39.9322 64.0867C40.0531 64.2175 40.1977 64.3215 40.3573 64.3925C40.5168 64.4635 40.6883 64.5001 40.8615 64.5H44.4083C45.1251 64.5 45.7062 63.8863 45.7062 63.1293V62.1885C45.7062 61.4316 45.1251 60.8179 44.4083 60.8179H43.8618C43.6591 60.8178 43.4595 60.7662 43.2798 60.6673C43.1001 60.5684 42.9457 60.4251 42.8296 60.2498C42.7135 60.0744 42.6392 59.872 42.613 59.6598C42.5868 59.4476 42.6094 59.2318 42.6791 59.0309C43.3514 57.1105 43.8741 55.1354 44.2419 53.1251L48.5069 63.6687C48.7117 64.1729 49.1814 64.5 49.7011 64.5H54.4115C55.1283 64.5 55.7107 63.8863 55.7107 63.1293V62.4291C55.7107 61.7641 55.2589 61.195 54.6394 61.0801L52.3968 60.6597C52.1152 60.6056 51.8566 60.457 51.6634 60.2326C50.752 59.1742 50.1658 57.8549 49.9021 56.276C49.2518 52.3817 48.8397 51.9599 49.9021 48.2156C50.2477 46.9923 52.7846 45.8001 54.4077 40.381C55.4483 36.9124 56.3699 31.0202 57.175 22.7043C57.204 22.4044 57.3258 22.1229 57.5216 21.9035C57.7173 21.684 57.9761 21.5389 58.2579 21.4905L60.7514 21.0647C61.1354 20.9984 61.472 20.7538 61.6678 20.3983L63.6416 16.7972C63.6584 16.7663 63.6763 16.7361 63.6954 16.7067C63.8886 16.4268 63.9951 16.0906 64 15.7442C64 15.4793 63.9347 15.2062 63.8042 14.9237C63.735 14.775 63.6416 14.6399 63.5264 14.5263L60.9472 11.9675C60.768 11.7877 60.6387 11.5579 60.5773 11.3051L60.4314 10.6928C60.3008 10.148 60.0141 9.65736 59.6122 9.28969C58.8365 8.58408 58.2643 8.11097 57.8944 7.87036C57.4336 7.57163 56.4762 7.21207 55.0246 6.79438C55.7619 5.70488 56.1664 4.75191 56.2381 3.93411C56.3469 2.70808 56.439 1.49422 55.9693 1.44691C55.6544 1.41582 54.8582 2.3296 53.5795 4.18823C53.6794 1.84027 53.4554 0.802134 52.905 1.07654C52.3546 1.34959 51.1488 2.93247 49.2826 5.82519L47.4624 8.015C46.5782 9.07856 45.9278 10.3355 45.5578 11.6958C44.6387 15.0751 43.7632 17.5069 42.9338 18.9938C41.4503 21.6459 39.6314 24.9117 33.7203 24.4278C27.8106 23.9452 25.8227 22.6813 21.8855 22.0271C19.8702 21.7025 17.8397 21.4945 15.8029 21.4039C15.0963 21.3694 14.3884 21.4326 13.6973 21.5918Z" fill="white"/>
</svg>
