<svg width="64" height="65" viewBox="0 0 64 65" fill="none" xmlns="http://www.w3.org/2000/svg">
<path fill-rule="evenodd" clip-rule="evenodd" d="M11.4246 24.6041C9.4409 23.7593 7.93604 22.3283 6.52457 20.8922C4.91579 19.2551 4.89474 17.2032 4.89474 16.1293C4.89474 14.4218 6.54299 13.0753 9.22254 13.0126C10.6419 12.9793 11.5088 13.3236 12.6913 14.162C13.5385 14.761 15.5235 16.722 14.6382 18.3258C14.5922 18.409 14.5172 18.5101 14.4106 18.6291C14.3057 18.7476 14.2471 18.8984 14.2452 19.0548C14.2433 19.2112 14.2981 19.3633 14.4001 19.4842C14.5023 19.6051 14.6489 19.6825 14.8088 19.7C14.9687 19.7174 15.1293 19.6735 15.2564 19.5776L15.3959 19.4726C17.1454 18.1722 18.0978 17.6883 18.0978 15.762C18.0978 12.137 13.182 8.6542 8.43459 8.76556C3.69244 8.87692 0 12.2087 0 16.0935C0 18.2183 1.39174 21.2326 3.66744 23.5494C5.12241 25.0312 6.87912 26.2013 8.82527 26.9849C8.70162 27.1833 8.57403 27.397 8.4438 27.6287C7.15467 29.9148 7.32304 30.1925 7.15862 33.0482C6.9955 35.9051 7.86369 41.0123 7.53088 43.5287C7.19676 46.0439 5.52747 46.3242 5.16046 48.1367C4.92763 49.2848 4.35015 54.2691 3.42804 63.0869C3.40906 63.2654 3.42882 63.4457 3.48602 63.6163C3.54323 63.7868 3.63661 63.9438 3.76012 64.077C3.88363 64.2102 4.03451 64.3167 4.203 64.3896C4.37149 64.4624 4.55383 64.5001 4.73821 64.5H7.44406C7.79224 64.5 8.12616 64.3654 8.37236 64.1259C8.61856 63.8863 8.75687 63.5614 8.75687 63.2226V62.5864C8.75687 62.1832 8.56218 61.8031 8.23069 61.5624L7.81239 61.2565C7.61555 61.113 7.464 60.9187 7.37495 60.6956C7.2859 60.4725 7.2629 60.2296 7.30857 59.9944C8.02812 56.2671 8.66084 54.0233 9.20544 53.263C9.60796 52.6998 11.4259 51.7821 13.77 50.0029C14.1896 49.6829 14.9447 49.0045 16.0326 47.9651C16.1201 47.8809 16.2301 47.8223 16.3502 47.7959C16.4703 47.7696 16.5956 47.7765 16.7118 47.816C16.828 47.8555 16.9305 47.9259 17.0076 48.0192C17.0847 48.1126 17.1334 48.2251 17.1481 48.344C17.3454 49.8838 17.5927 51.1817 17.886 52.2377C18.2412 53.51 19.333 56.829 21.1601 62.1922C21.247 62.4479 21.4146 62.6703 21.639 62.828C21.8633 62.9856 22.1331 63.0704 22.4098 63.0703H25.8536C26.1654 63.0699 26.4643 62.9492 26.6848 62.7347C26.9053 62.5202 27.0293 62.2293 27.0296 61.926V61.8492C27.03 61.5492 26.922 61.2586 26.7246 61.0282C26.5273 60.7977 26.253 60.6421 25.9496 60.5884L24.4724 60.3247C23.4122 56.5564 22.9504 53.7968 23.0846 52.0445C23.1793 50.8054 24.0396 49.3642 24.9065 46.8554C25.0867 46.3332 25.3406 45.2682 25.6668 43.6554C25.6842 43.5697 25.7194 43.4884 25.7703 43.4165C25.8211 43.3445 25.8866 43.2835 25.9626 43.2371C26.0387 43.1907 26.1236 43.1599 26.2124 43.1467C26.3011 43.1334 26.3916 43.138 26.4784 43.1601L35.2432 45.3693C35.3397 45.3935 35.4292 45.4387 35.5051 45.5015C35.5809 45.5643 35.6412 45.6431 35.6812 45.7318C35.7212 45.8206 35.74 45.917 35.7362 46.0139C35.7323 46.1107 35.7059 46.2055 35.6589 46.2909L35.4524 46.6698C35.0577 47.3891 34.8525 48.193 34.8525 49.0083V60.989C34.8525 61.3871 35.0433 61.7634 35.3682 62.0066L37.2058 63.3762C37.436 63.5481 37.7181 63.6413 38.0083 63.6411H39.3276C39.6766 63.6408 40.0112 63.5057 40.2579 63.2654C40.5045 63.0252 40.6431 62.6995 40.6431 62.3599V61.7071C40.6431 61.2424 40.3866 60.8136 39.9696 60.5871L39.0225 60.0725C38.8012 59.9527 38.6202 59.7732 38.5012 59.5557C38.3822 59.3382 38.3302 59.0918 38.3516 58.8463C38.5016 57.117 38.6857 55.8012 38.9067 54.9001C39.133 53.9708 39.6828 52.312 40.555 49.9261C40.5908 49.8279 40.6508 49.7397 40.7297 49.6692C40.8085 49.5987 40.9039 49.548 41.0075 49.5215C41.1111 49.495 41.2197 49.4935 41.324 49.5172C41.4283 49.5408 41.5251 49.5889 41.606 49.6573L41.8625 49.8723C42.5057 50.4138 43.2911 50.7683 44.1303 50.9001L52.3544 52.1801C52.4715 52.1984 52.5813 52.247 52.6723 52.321C52.7632 52.395 52.8319 52.4915 52.8712 52.6003C52.9104 52.7092 52.9186 52.8263 52.8951 52.9394C52.8715 53.0524 52.8169 53.1572 52.7372 53.2425L51.8625 54.1795C51.6415 54.415 51.5204 54.7222 51.5204 55.0409V55.878C51.5205 56.0493 51.556 56.2189 51.6246 56.3767C51.6932 56.5344 51.7936 56.6772 51.92 56.7966C52.0463 56.9159 52.1959 57.0094 52.36 57.0715C52.5241 57.1335 52.6993 57.163 52.8753 57.158L53.954 57.1273C54.1502 57.1217 54.3426 57.0735 54.5171 56.9863C54.6917 56.899 54.844 56.7749 54.9629 56.623L56.3231 54.8899C56.498 54.6666 56.5928 54.3937 56.5928 54.1129V51.5683C56.5928 51.1241 56.356 50.7107 55.9679 50.4778C50.3497 47.0986 47.3031 45.2311 46.8283 44.8714C46.3363 44.5002 46.1311 43.8794 46.2126 43.0103C47.1282 40.3646 48.5949 39.4276 49.2539 37.8609C49.9117 36.2955 51.135 31.4226 51.7401 29.5513C52.9569 25.7881 54.025 23.7977 54.3131 23.2025C54.9603 21.8662 56.1021 21.6768 57.3084 21.216C58.5146 20.7539 60.8074 20.8243 62.2991 19.5507C63.7895 18.2759 63.6527 16.9447 64 15.4957V13.7229C64 13.0151 63.4094 12.4417 62.6819 12.4417H59.1092C58.6264 12.4417 58.1831 12.1857 57.9516 11.7722C57.5438 11.0439 56.8927 10.3476 55.9969 9.68459C54.8045 8.80786 53.446 8.16887 51.9993 7.80429C52.3281 3.81842 52.3281 1.56692 51.9993 1.04981C51.6704 0.532691 50.7562 1.34164 49.2539 3.47666C49.0395 0.962766 48.6212 0.0411764 47.9977 0.711889C47.4163 1.33908 46.4126 3.61746 44.988 7.54702C44.8012 8.05901 44.5315 8.54284 44.1895 8.9742C43.591 9.72683 43.0517 10.6279 42.5689 11.675C41.652 13.6666 40.5813 18.8685 38.6857 21.4272C36.7915 23.9859 35.6852 24.1958 32.9491 24.6694C31.1312 24.9843 24.8631 23.9782 19.7289 23.7836C15.7747 23.6326 12.594 24.2803 12.0205 24.4236C11.8139 24.4761 11.6166 24.535 11.4246 24.6041Z" fill="white"/>
</svg>
